<svg width="24" height="24" viewBox="0 0 24 24" fill="none" xmlns="http://www.w3.org/2000/svg">
<g clip-path="url(#clip0_204_112)">
<path d="M15.7855 4.76136C16.5113 4.03555 18.7861 3.08846 20.451 2.4598C21.2219 2.1687 21.9492 2.89596 21.6581 3.66688C21.0294 5.33181 20.0824 7.60658 19.3565 8.33238C18.1662 9.5227 16.9759 9.52272 15.7855 8.33238C14.5952 7.14204 14.5952 5.9517 15.7855 4.76136Z" fill="#BDBEBE"/>
<path d="M13.0618 14.6271C11.7205 15.9684 8.15995 18.2727 5.48463 19.9257C4.61025 20.4659 3.65195 19.5076 4.1922 18.6332C5.84522 15.9579 8.14946 12.3974 9.49076 11.0561C11.7521 8.79476 13.478 8.25923 14.6683 9.44957C15.8587 10.6399 15.3231 12.3658 13.0618 14.6271Z" fill="#BDBEBE"/>
<path d="M13 4H5C4.44772 4 4 4.44772 4 5V13" stroke="#BDBEBE" stroke-width="2" stroke-linecap="round"/>
<path d="M11 20H19C19.5523 20 20 19.5523 20 19V11" stroke="#BDBEBE" stroke-width="2" stroke-linecap="round"/>
</g>
<defs>
<clipPath id="clip0_204_112">
<rect width="24" height="24" fill="white"/>
</clipPath>
</defs>
</svg>
